<?xml version="1.0" encoding="utf-8"?>
<!-- Generator: Adobe Illustrator 24.2.0, SVG Export Plug-In . SVG Version: 6.00 Build 0)  -->
<svg version="1.1" id="Layer_1" xmlns="http://www.w3.org/2000/svg" xmlns:xlink="http://www.w3.org/1999/xlink" x="0px" y="0px"
	 viewBox="0 0 1322 181" style="enable-background:new 0 0 1322 181;" xml:space="preserve">
<style type="text/css">
	.st0{fill:#021A32;}
	.st1{fill:#061B31;}
	.st2{fill:#0794D2;}
	.st3{fill:#F89721;}
</style>
<rect x="739.4" y="18.1" class="st0" width="1.9" height="113.5"/>
<g>
	<path class="st0" d="M858.6,55.2v55.7h-4.3V55.2C854.2,55.2,858.6,55.2,858.6,55.2z"/>
	<path class="st0" d="M841.7,80.9h-19.5v4.4h14.9v19.8c-3.3,1.5-7.5,2.4-11.7,2.4c-12.1,0-24.6-6.3-24.6-23.3
		c0-16.5,12.4-23.3,24.3-23.3c5.5,0,11,1.3,15.2,3.8v-4.6c-4.6-2.3-10.2-3.5-15.8-3.5c-14,0-28.2,8.8-28.2,27.6
		c0,19.9,14.3,27.6,28.8,27.6c5.8,0,11.7-1.3,16.6-3.6V85.3l0,0L841.7,80.9L841.7,80.9z"/>
	<path class="st0" d="M887.4,73.5c10,0,19.3,6.8,19.3,19.1s-9.3,19.1-19.3,19.1c-9.8,0-19.2-6.8-19.2-19.1S877.6,73.5,887.4,73.5z
		 M887.5,77.6c-8.2,0-15,5.5-15,15s6.8,15,15,15c8.1,0,14.9-5.5,14.9-15S895.6,77.6,887.5,77.6z"/>
	<path class="st0" d="M920.5,57.5v23.9c2.8-4.2,7.9-7.9,15.2-7.9c10.5,0,18.2,7.9,18.2,19.1s-7.8,19.1-18.2,19.1
		c-7.3,0-12.4-3.7-15.6-8.4v7.6h-3.9V57.5H920.5z M935.1,77.4c-7.1,0-12.6,4.7-14.7,10.2v9.9c2.1,5.5,7.6,10.2,14.7,10.2
		c8.1,0,14.4-5.8,14.4-15.2C949.6,83.2,943.2,77.4,935.1,77.4z"/>
	<path class="st0" d="M996.9,107.5c1,0,1.9-0.2,2.8-0.5v3.5c-1.2,0.5-2.6,0.8-4,0.8c-3.1,0-5.9-1.5-6.3-5.6c-3.7,4-8.9,6.2-15,6.2
		c-6.4,0-12.7-3.4-12.7-10.8c0-9.1,8.4-12,16.2-12c3.9,0,8,0.6,11.5,1.6v-2.4c0-6.4-4.1-10.7-11.7-10.7c-5.6,0-10.1,1.3-13.1,2.6
		v-4.3c2.8-1,7.6-2.3,13.6-2.3c9.7,0,15.5,5.4,15.5,15.2v15.6C993.6,106.7,995.1,107.5,996.9,107.5z M975.2,108
		c5.5,0,10.8-2.5,14.1-7.2v-6.7c-3.2-0.8-7.3-1.5-10.9-1.5c-6,0-12.4,2-12.4,8.1C966,105.7,970.6,108,975.2,108z"/>
	<path class="st0" d="M1012.3,55.2v55.7h-4.3V55.2C1007.9,55.2,1012.3,55.2,1012.3,55.2z"/>
	<path class="st0" d="M1055.3,56.7c5.7,0,11.6,1.4,15.7,3.7V65c-4.1-2.6-10.1-4-15.4-4c-7.3,0-13.3,2.6-13.3,9.2
		c0,15,32.5,8.6,32.5,27.9c0,10.1-9.1,13.9-18.9,13.8c-6.8,0-13.1-1.7-18.2-4.5v-4.5c5.5,3.2,11.8,4.7,17.9,4.7
		c7.9,0,14.7-2.4,14.7-9.2c0-15.8-32.5-9.3-32.5-28C1037.6,60.9,1046.2,56.7,1055.3,56.7z"/>
	<path class="st0" d="M1100.6,73.5c13.9,0,18.6,11.5,16.7,21.1h-30.4c0.5,9.3,8.2,13.2,16.4,13.2c4.4,0,8.8-1.1,12-3v4.3
		c-3.3,1.8-7.9,2.7-12.6,2.7c-10.7,0-20.1-5.9-20.1-19.1C1082.5,80,1091.7,73.5,1100.6,73.5z M1100.9,77.4c-7.2,0-13.7,4.6-14,13.4
		h26.6C1114.1,85.6,1111.2,77.4,1100.9,77.4z"/>
	<path class="st0" d="M1145.4,73.5v4.4c-8-0.6-13.8,4.4-15.7,10.7v22.4h-4.3V74.3h3.9v8.5C1131.9,77.3,1138.1,73.2,1145.4,73.5z"/>
	<path class="st0" d="M1188.5,74.3l-16.6,36.6h-4.6l-16.6-36.6h4.8l14.1,31.7l14-31.7H1188.5z"/>
	<path class="st0" d="M1198.2,66.1c-1.6,0-3-0.9-3-2.9c0-1.8,1.4-2.9,3-2.9c1.5,0,2.9,1.1,2.9,2.9
		C1201.1,65.1,1199.7,66.1,1198.2,66.1z M1196.1,110.9V74.3h4.3v36.6H1196.1z"/>
	<path class="st0" d="M1229.8,73.5c3.9,0,7.9,0.8,11.1,3v4.2c-2.8-2.1-6.8-3.2-10.5-3.2c-7.9,0-15.9,4.5-15.9,15.3
		c0,10.3,7.6,15,15.5,15c4,0,8.2-1.1,11.4-3v4.4c-3.5,1.8-7.6,2.6-12,2.6c-9.5,0-19.2-5.9-19.2-18.9
		C1210,79.3,1220.3,73.5,1229.8,73.5z"/>
	<path class="st0" d="M1266.7,73.5c13.9,0,18.6,11.5,16.7,21.1H1253c0.5,9.3,8.2,13.2,16.4,13.2c4.4,0,8.8-1.1,12-3v4.3
		c-3.3,1.8-7.9,2.7-12.6,2.7c-10.7,0-20.1-5.9-20.1-19.1C1248.6,80,1257.9,73.5,1266.7,73.5z M1267,77.4c-7.2,0-13.7,4.6-14,13.4
		h26.6C1280.2,85.6,1277.3,77.4,1267,77.4z"/>
	<path class="st0" d="M1305.8,73.5c4.8,0,9.5,1.3,12.7,3.1v4.1c-3-1.9-8-3.4-12.4-3.4c-4.6,0-9.4,1.7-9.4,6
		c0,9.6,24.2,5.2,24.2,18.5c0,7.3-6.9,9.9-14.5,9.9c-5.1,0-10.8-1.4-14.1-3.6v-4.3c3.7,2.4,9.2,3.9,13.9,3.9
		c5.7,0,10.4-1.4,10.4-5.8c0-9.5-24.2-5.2-24.2-18.5C1292.4,76.3,1299.2,73.5,1305.8,73.5z"/>
</g>
<g>
	<path class="st1" d="M437.4,170.9c-9.9,0-14.9-8-13.6-16c1.3-7.8,7.7-15.6,18.3-15.6c9.9,0,14.9,8,13.6,16
		C454.4,163.2,448.4,170.9,437.4,170.9z M437.6,167.4c8.4,0,13.4-5.9,14.4-12.3c0.9-5.8-2-12.3-10.2-12.3c-8.4,0-13.4,5.9-14.4,12.3
		C426.5,160.9,429.4,167.4,437.6,167.4z"/>
	<path class="st1" d="M492.2,149.5l-10.4,20.9h-3.7l-3-16.1l-8.3,16.1H463l-3.8-20.9h3.5l2.9,16.6l8.5-16.6h3.1l3.2,16.5l8-16.5
		H492.2z"/>
	<path class="st1" d="M507.2,149c5.1,0,8,3.6,7.2,8.7l-2,12.8h-3.5l2-12.6c0.6-3.9-1.4-5.6-4.6-5.6c-3,0-5.9,2.1-7.7,4.3l-2.2,13.9
		h-3.5l3.3-20.9h3.1l-0.5,3.3C500.9,150.7,503.8,149,507.2,149z"/>
	<path class="st1" d="M542.6,149c2.4,0,4.6,0.6,6.5,1.9l-0.6,3.3c-1.5-1.4-3.5-2-5.6-2c-4.1,0-8.8,2.1-9.7,7.8
		c-0.8,5.4,2.6,7.8,7.1,7.8c2.3,0,4.6-0.8,6.7-1.9l-0.6,3.6c-2.1,1-4.3,1.5-6.9,1.5c-5.8,0-10.9-3.7-9.7-11.3
		C530.9,152,537.2,149,542.6,149z"/>
	<path class="st1" d="M559.3,139.9l-2,12.5c2-1.9,4.9-3.4,7.9-3.4c5.1,0,8,3.6,7.2,8.7l-2,12.8h-3.5l2-12.6c0.6-3.9-1.4-5.6-4.6-5.6
		c-3,0-5.9,2.1-7.7,4.3l-2.2,13.9H551l4.8-30.5L559.3,139.9L559.3,139.9z"/>
	<path class="st1" d="M585.6,170.9c-6.1,0-9.8-4.8-8.8-11.2c1-6.2,6.1-10.8,12-10.8c4.1,0,6.5,2,8,4.1l0.6-3.6h3.1l-3.3,20.9H594
		l0.6-3.6C592.5,169.1,589.6,170.9,585.6,170.9z M586.2,167.7c3.8,0,7.1-2.5,8.7-5.2l0.8-5.2c-0.7-2.7-3-5.1-6.7-5.1
		c-4.1,0-8,2.9-8.8,7.8C579.5,164.6,582.2,167.7,586.2,167.7z"/>
	<path class="st1" d="M617.8,149c5.1,0,8,3.6,7.2,8.7l-2,12.8h-3.5l2-12.6c0.6-3.9-1.4-5.6-4.6-5.6c-3,0-5.9,2.1-7.7,4.3l-2.2,13.9
		h-3.5l3.3-20.9h3.1l-0.5,3.3C611.5,150.7,614.5,149,617.8,149z"/>
	<path class="st1" d="M637.3,180.5c-3.8,0-6.6-0.8-8.7-2.2l0.5-3.3c2,1.5,4.5,2.3,7.9,2.3c4.5,0,8.5-2.1,9.2-7l0.5-3
		c-1.8,1.8-4.6,3.6-8.5,3.6c-6.1,0-9.8-4.8-8.8-11.2c1-6.2,6.1-10.8,12-10.8c4.1,0,6.5,2,7.9,4.3l0.6-3.8h3.2l-3.3,21.1
		C648.6,177.7,643,180.5,637.3,180.5z M638.8,167.7c3.8,0,7.1-2.4,8.7-4.9l0.9-5.6c-0.7-2.7-3.1-5-6.8-5c-4.1,0-8,2.9-8.8,7.8
		C632,164.6,634.8,167.7,638.8,167.7z"/>
	<path class="st1" d="M668.5,149c8,0,10.2,6.7,7.9,12.6h-16.7c-0.3,4.4,3.8,6.1,7.5,6.1c2.7,0,5.4-0.7,7.5-1.8l-0.6,3.5
		c-2,1-4.7,1.5-7.5,1.5c-5.5,0-11.3-3.6-10.2-11.1C657.6,152.6,663.4,149,668.5,149z M668.5,152.2c-3.8,0-7.4,2.4-8.3,6.4h13.6
		C674.4,156.1,673.7,152.2,668.5,152.2z"/>
</g>
<g>
	<g>
		<g>
			<polygon class="st1" points="302.3,65.5 340.5,112.2 315.7,112.2 280.1,68.7 280.1,112.2 257.6,112.2 257.6,19.5 280.1,19.5 
				280.1,61.5 280.3,61.5 308.7,19.5 333.4,19.5 			"/>
			<polygon class="st1" points="129.6,112.2 129.6,38.8 100.5,38.8 100.5,19.5 181.4,19.5 181.4,38.8 152.3,38.8 152.3,112.2 			"/>
			<polygon class="st1" points="186.1,112.2 186.1,19.5 252.1,19.5 252.1,38.1 208.3,38.1 208.3,57 250.1,57 250.1,74 208.3,74 
				208.3,93.6 252.8,93.6 252.8,112.2 			"/>
		</g>
		<g>
			<g>
				<path class="st1" d="M683.5,62.5c0,1.8-1.4,3.2-3.2,3.2s-3.2-1.4-3.2-3.2c0-1.8,1.4-3.1,3.3-3.1
					C682.1,59.3,683.5,60.7,683.5,62.5z M677.9,62.5c0,1.4,1,2.5,2.5,2.5c1.4,0,2.4-1.1,2.4-2.5c0-1.4-1-2.5-2.4-2.5
					C678.9,60,677.9,61.1,677.9,62.5z M679.8,64.1h-0.7V61c0.3,0,0.7-0.1,1.2-0.1c0.6,0,0.9,0.1,1.1,0.3c0.2,0.1,0.3,0.4,0.3,0.7
					c0,0.4-0.3,0.6-0.7,0.8v0c0.3,0.1,0.5,0.4,0.6,0.8c0.1,0.5,0.2,0.6,0.2,0.8H681c-0.1-0.1-0.2-0.4-0.2-0.8
					c-0.1-0.3-0.3-0.5-0.7-0.5h-0.3L679.8,64.1L679.8,64.1z M679.8,62.4h0.3c0.4,0,0.7-0.1,0.7-0.5c0-0.3-0.2-0.5-0.7-0.5
					c-0.2,0-0.3,0-0.4,0L679.8,62.4L679.8,62.4z"/>
			</g>
			<g>
				<path class="st1" d="M363.5,112.8c-0.3,0-0.6,0-0.9,0l0,0c-3,0-5.9-0.4-8.5-1.3c-8.3-2.4-13.3-8.3-13.3-15.8v-0.7h3.4v0.7
					c0,5.8,4,10.5,10.8,12.6c2.4,0.7,5,1.1,7.7,1.1c0.3,0,0.5,0,0.8,0c2.2,0,4.6-0.4,6.8-1c6.4-1.8,10-5.9,10-11.1
					c0-8.5-8.8-9.6-18.2-10.7l-0.3,0c-9.9-1.2-20.1-2.5-20.1-13c0-6.5,4.5-11.6,12-13.8c2.3-0.7,5-1.1,8.1-1.1
					c2.7,0,5.5,0.4,8.1,1.1c8,2.4,12.6,7.5,12.6,14v0.7H379v-0.7c0-7-7-9.8-10.1-10.6c-5.1-1.4-10.4-1.3-14.4-0.1
					c-6,1.7-9.5,5.6-9.5,10.6c0,7.1,7.1,8.5,17.2,9.7c10.5,1.3,21.3,2.6,21.3,14.1c0,6.9-4.5,12.1-12.5,14.4
					C368.7,112.4,366,112.8,363.5,112.8z"/>
			</g>
			<g>
				<path class="st1" d="M398.7,130.3h-3.7l8-18.5l-22.2-52.7h3.7l20.3,48.6l21.5-48.6h3.7L398.7,130.3z"/>
			</g>
			<g>
				<path class="st1" d="M450.3,112.8c-0.3,0-0.6,0-0.9,0l0,0c-3,0-5.9-0.4-8.5-1.3c-8.3-2.4-13.3-8.3-13.3-15.8v-0.7h3.4v0.7
					c0,5.8,4,10.5,10.8,12.6c2.4,0.7,5,1.1,7.7,1.1c0.3,0,0.5,0,0.8,0c2.2,0,4.6-0.4,6.8-1c6.3-1.8,10-5.9,10-11.1
					c0-8.5-8.8-9.6-18.2-10.7l-0.3,0c-9.9-1.2-20.1-2.5-20.1-13c0-6.5,4.5-11.6,12-13.8c2.3-0.7,5.1-1.1,8.1-1.1
					c2.7,0,5.5,0.4,8.1,1.1c8,2.4,12.6,7.5,12.6,14v0.7h-3.4v-0.7c0-7-7-9.8-10.1-10.6c-5.1-1.4-10.5-1.3-14.4-0.1
					c-6,1.7-9.5,5.6-9.5,10.6c0,7.1,7.1,8.5,17.2,9.7c10.5,1.3,21.3,2.6,21.3,14.1c0,6.9-4.5,12.1-12.5,14.4
					C455.5,112.4,452.9,112.8,450.3,112.8z"/>
			</g>
			<g>
				<path class="st1" d="M492.2,112.5c-11.4,0-13.6-6.7-13.6-18.2V62.7h-9.7v-3.3h9.7V48.6h3.4v10.8h14.2v3.3H482v31.6
					c0,11.6,1.9,16,14.3,14.6l0.7-0.1l0.3,3.3l-0.7,0.1C495,112.4,493.5,112.5,492.2,112.5z"/>
			</g>
			<g>
				<path class="st1" d="M521.2,112.7c-11.3,0-20.1-5.8-24.1-15.9c-1.3-3.3-2-6.9-2-11c0-4,0.7-7.6,2-10.9
					c4-10.1,12.8-15.9,24.1-15.9c7.3,0,13.7,2.5,18.5,7.3c4.9,4.9,7.5,11.8,7.5,19.5l0,0.7h-48.6c0.1,3.2,0.7,6.3,1.8,9
					c3.4,8.7,11,13.8,20.9,13.8c9.4,0,16.6-4.5,20.3-12.6l0.2-0.4h3.6l-0.4,1C540.9,107.1,532.3,112.7,521.2,112.7z M498.6,83.2
					h45.1c-1.2-12.5-10.1-20.9-22.5-20.9c-9.8,0-17.5,5-20.9,13.8C499.4,78.3,498.9,80.7,498.6,83.2z"/>
			</g>
			<g>
				<path class="st1" d="M630.4,112.3H627V82.8c-0.1-6.7-1.8-12.1-4.9-15.4c-3-3.3-7.1-4.9-12.2-4.9h-0.2c-3.7,0-8.8,0.9-12.5,5.5
					c-3,3.6-4.4,8.6-4.4,15.4v29h-3.4v-29c0-7-1.7-12.3-5-15.9c-2.9-3.2-7.1-4.9-12.2-4.9h-0.2c-3.7,0-8.8,0.9-12.5,5.5
					c-2.8,3.3-4.3,8.2-4.4,14.5v29.8h-3.4V59.2h3.4v9.2c0.5-1,1.1-1.9,1.8-2.7c4.6-5.5,10.8-6.7,15.2-6.7h0.2c6.1,0,11.2,2.1,14.7,6
					c1.7,1.9,3.1,4.6,4.1,7.5c0.8-2.8,2.3-5.2,3.6-6.8c4.5-5.5,10.7-6.7,15.1-6.7h0.2c6.1,0,11.2,2.1,14.7,6
					c3.8,4.2,5.7,10.1,5.8,17.8L630.4,112.3L630.4,112.3z"/>
			</g>
			<g>
				<path class="st1" d="M658.4,112.8c-0.3,0-0.6,0-0.9,0h0c-3,0-5.9-0.4-8.5-1.3c-8.3-2.4-13.3-8.3-13.3-15.8v-0.7h3.4v0.7
					c0,5.8,4,10.5,10.8,12.6c2.4,0.7,5,1.1,7.7,1.1c0.3,0,0.5,0,0.8,0c2.2,0,4.6-0.4,6.8-1c6.3-1.8,10-5.9,10-11.1
					c0-8.5-8.8-9.6-18.2-10.7l-0.3,0c-9.9-1.2-20.1-2.5-20.1-13c0-6.5,4.5-11.6,12-13.8c2.3-0.7,5-1.1,8.1-1.1
					c2.7,0,5.5,0.4,8.1,1.1c8,2.4,12.6,7.5,12.6,14v0.7h-3.4v-0.7c0-7-7-9.8-10.1-10.6c-5.1-1.4-10.4-1.3-14.4-0.1
					c-6,1.7-9.5,5.6-9.5,10.6c0,7.1,7.1,8.5,17.2,9.7c10.5,1.3,21.3,2.6,21.3,14.1c0,6.9-4.5,12.1-12.5,14.4
					C663.5,112.4,660.9,112.8,658.4,112.8z"/>
			</g>
		</g>
	</g>
	<g>
		<g>
			<path class="st2" d="M26.6,25.8c-7.1,0-12.2,0.4-14.8,1.1c-0.1,0-0.2,0.1-0.3,0.1c-4.6,1-7.4,3.7-8.3,8.1
				C2,40.7,8.6,47.3,8.7,47.4c0.4,0.3,39.8,34,43.5,37.1c3.8,3.3,9.1,5,12.1,3.7c1.2-0.5,2.2-1.1,2.9-1.7C66,86.8,64.8,87,63.7,87
				l0,0c-2.5,0-4.7-0.8-6.7-2.4c-7.4-5.8-16-23.3-17.4-26.5L39,56.9c-2.3-5.3-5.5-12.5-3.7-21.9c0.9-4.3,2.2-7.5,2.9-8.9
				C36.4,26,31.6,25.8,26.6,25.8z"/>
		</g>
		<g>
			<path class="st3" d="M27.9,23.3c4.8,0,9.3,0.3,11.6,0.5l1.4,0.2c5.7,0.6,13.6,1.4,20.8,7.7c3.3,2.9,5.4,5.7,6.3,7
				c2.2-3.4,10.9-17.4,12.4-23.4c0-0.1,0.1-0.2,0.1-0.3c1.4-4.5,0.4-8.2-2.9-11.2c-1.6-1.4-4-2.1-7.2-2.1c-3.3,0-6.2,0.8-6.2,0.8
				C63.7,2.5,14.9,20,10.3,21.6c-4.3,1.5-8.8,4.9-9.3,8.6c-0.2,1.3-0.1,2.4,0.1,3.3c0.7-3.1,2.7-6.3,6.6-7.9
				C12.9,23.7,21.5,23.3,27.9,23.3z"/>
		</g>
		<g>
			<path class="st1" d="M42,58.1c1.8,3.6,9.5,18.2,14,22.5c0.1,0.1,0.1,0.1,0.2,0.3c0.8,0.9,3.4,3.7,7.6,3.7c1.1,0,2.3-0.2,3.5-0.6
				c5.5-1.8,7.9-10.8,7.9-10.9c0.1-0.5,9.5-51.5,10.4-56.2c0.9-4.4,0.2-10.1-2.8-12.3c-1.1-0.8-2.1-1.3-2.9-1.6
				c2.3,2.2,4.1,5.5,3.5,9.7C82,22,71.2,38.1,69.1,40.9l-0.8,1.1c-3.4,4.7-8.1,11-17.1,14.1C47,57.6,43.6,58,42,58.1z"/>
		</g>
	</g>
</g>
</svg>
